<?xml version="1.0" encoding="utf-8"?>
<!-- Generator: Adobe Illustrator 23.0.1, SVG Export Plug-In . SVG Version: 6.00 Build 0)  -->
<svg version="1.1" id="Layer_1" xmlns="http://www.w3.org/2000/svg" xmlns:xlink="http://www.w3.org/1999/xlink" x="0px" y="0px"
	 viewBox="0 0 12 12" style="enable-background:new 0 0 12 12;" xml:space="preserve">
<style type="text/css">
	.st0{display:none;}
	.st1{display:inline;}
	.st2{fill:#7C3AED;}
	.st3{fill:#525252;}
	.st4{fill:#737373;}
	.st5{fill:#EA580C;}
</style>
<g class="st0">
	<path class="st1" d="M10.5,7.5v2.3c0,0.4-0.3,0.8-0.8,0.8H2.3c-0.4,0-0.8-0.3-0.8-0.8V7.5c0-0.4,0.3-0.8,0.8-0.8h3.4V4.5
		C4.6,4.3,4,3.3,4.2,2.2c0.2-1,1.2-1.7,2.2-1.5S8,2,7.8,3C7.7,3.7,7.1,4.3,6.4,4.5v2.3h3.4C10.2,6.8,10.5,7.1,10.5,7.5z M7.5,5.6
		C7.5,5.8,7.7,6,7.9,6h1.5c0.2,0,0.4-0.2,0.4-0.4S9.6,5.3,9.4,5.3H7.9C7.7,5.3,7.5,5.4,7.5,5.6z"/>
</g>
<g>
	<path class="st2" d="M9.4,6H7.9C7.7,6,7.5,5.8,7.5,5.6l0,0c0-0.2,0.2-0.4,0.4-0.4h1.5c0.2,0,0.4,0.2,0.4,0.4l0,0
		C9.8,5.8,9.6,6,9.4,6z"/>
	<rect x="5.6" y="4.3" class="st3" width="0.8" height="2.5"/>
	<path class="st4" d="M9.8,10.5H2.2c-0.4,0-0.7-0.3-0.7-0.7V7.5c0-0.4,0.3-0.7,0.7-0.7h7.5c0.4,0,0.7,0.3,0.7,0.7v2.3
		C10.5,10.2,10.2,10.5,9.8,10.5z"/>
	<ellipse class="st5" cx="6" cy="2.6" rx="1.9" ry="1.9"/>
</g>
</svg>
