<?xml version="1.0" encoding="utf-8"?>
<!-- Generator: Adobe Illustrator 23.0.1, SVG Export Plug-In . SVG Version: 6.00 Build 0)  -->
<svg version="1.1" id="Layer_1" xmlns="http://www.w3.org/2000/svg" xmlns:xlink="http://www.w3.org/1999/xlink" x="0px" y="0px"
	 viewBox="0 0 12 12" style="enable-background:new 0 0 12 12;" xml:space="preserve">
<style type="text/css">
	.st0{display:none;}
	.st1{display:inline;}
	.st2{fill:#F97316;}
	.st3{fill:#A78BFA;}
	.st4{fill:#737373;}
	.st5{fill:#7C3AED;}
	.st6{fill:#FB923C;}
</style>
<g class="st0">
	<path class="st1" d="M1.5,11.3H1.1c-0.4,0-0.8-0.3-0.8-0.8V2.6c0-0.4,0.3-0.8,0.8-0.8h0.4c0.4,0,0.8,0.3,0.8,0.8v7.9
		C2.3,10.9,1.9,11.3,1.5,11.3z M5.6,4.1c0-0.4-0.3-0.8-0.8-0.8H3.4C3,3.4,2.6,3.7,2.6,4.1v0.7c0,0.1,0,0.1,0.1,0.1h2.8
		c0.1,0,0.1,0,0.1-0.1V4.1z M2.6,10.5c0,0.4,0.3,0.8,0.8,0.8h1.5c0.4,0,0.8-0.3,0.8-0.8V9.8l0,0h-3l0,0v0.7H2.6z"/>
	<path class="st1" d="M2.7,5.6h2.9l0,0V9l0,0H2.7l0,0V5.6C2.6,5.6,2.6,5.6,2.7,5.6z"/>
	<path class="st1" d="M7.5,11.3H6.8C6.4,11.3,6,11,6,10.5v-9c0-0.4,0.3-0.8,0.8-0.8h0.8C8,0.7,8.4,1,8.4,1.5v9
		C8.3,10.9,7.9,11.3,7.5,11.3z M11.6,10.4l-0.8-8c0-0.4-0.4-0.6-0.8-0.6L9.3,1.9C8.9,2,8.6,2.3,8.6,2.7l0.8,8c0,0.4,0.4,0.6,0.8,0.6
		l0.7-0.1C11.4,11.1,11.7,10.8,11.6,10.4z"/>
</g>
<g>
	<path class="st2" d="M1.5,11.2H1.1c-0.4,0-0.8-0.3-0.8-0.8V2.6c0-0.4,0.3-0.8,0.8-0.8h0.4c0.4,0,0.8,0.3,0.8,0.8v7.9
		C2.3,10.9,1.9,11.2,1.5,11.2z"/>
	<path class="st3" d="M5.6,4.1c0-0.4-0.3-0.8-0.8-0.8H3.4C3,3.4,2.6,3.7,2.6,4.1v0.7c0,0.1,0,0.1,0.1,0.1h2.8c0.1,0,0.1,0,0.1-0.1
		V4.1z"/>
	<path class="st4" d="M2.7,5.6h2.9l0,0V9l0,0H2.7l0,0V5.6C2.6,5.6,2.6,5.6,2.7,5.6z"/>
	<path class="st3" d="M2.6,10.5c0,0.4,0.3,0.8,0.8,0.8h1.5c0.4,0,0.8-0.3,0.8-0.8V9.8l0,0H2.6l0,0L2.6,10.5L2.6,10.5z"/>
	<path class="st5" d="M7.5,11.3H6.8C6.4,11.3,6,11,6,10.5v-9c0-0.4,0.3-0.8,0.8-0.8h0.8C8,0.7,8.4,1,8.4,1.5v9
		C8.3,10.9,7.9,11.3,7.5,11.3z"/>
	<path class="st6" d="M11.6,10.4l-0.8-8c0-0.4-0.4-0.6-0.8-0.6L9.3,1.9C8.9,2,8.6,2.3,8.6,2.7l0.8,8c0,0.4,0.4,0.6,0.8,0.6l0.7-0.1
		C11.4,11.1,11.7,10.8,11.6,10.4z"/>
</g>
</svg>
