<?xml version="1.0" encoding="utf-8"?>
<!-- Generator: Adobe Illustrator 23.0.1, SVG Export Plug-In . SVG Version: 6.00 Build 0)  -->
<svg version="1.1" id="Layer_1" xmlns="http://www.w3.org/2000/svg" xmlns:xlink="http://www.w3.org/1999/xlink" x="0px" y="0px"
	 viewBox="0 0 12 12" style="enable-background:new 0 0 12 12;" xml:space="preserve">
<style type="text/css">
	.st0{display:none;}
	.st1{display:inline;}
	.st2{fill:#F97316;}
	.st3{fill:#8B5CF6;}
</style>
<g class="st0">
	<path class="st1" d="M9.4,7.2C9,7.2,8.7,7.3,8.5,7.6l-1.2-1C7.4,6.4,7.4,6.2,7.4,6c0-0.1,0-0.1,0-0.2l0.8-0.3
		C8.6,6.2,9.4,6.4,10.1,6s0.9-1.2,0.5-1.9S9.3,3.3,8.7,3.7C8.2,3.9,8,4.4,8,4.9V5L7.2,5.3C6.9,4.8,6.3,4.5,5.7,4.6L5.3,3.8
		c0.6-0.5,0.8-1.3,0.3-2C5.2,1.2,4.3,1,3.7,1.5s-0.8,1.3-0.3,2C3.7,3.9,4.3,4.1,4.8,4l0.4,0.9C4.6,5.3,4.4,6.1,4.8,6.7L3.5,7.9
		C2.8,7.4,2,7.5,1.5,8.2c-0.5,0.6-0.3,1.5,0.3,2s1.5,0.3,2-0.3c0.3-0.5,0.4-1.1,0.1-1.6l1.3-1.2C5.7,7.5,6.5,7.5,7,7l1.1,1
		c-0.3,0.7,0,1.5,0.7,1.9s1.5,0.1,1.9-0.6c0.3-0.7,0-1.6-0.7-1.9C9.8,7.3,9.6,7.2,9.4,7.2z M9.4,4c0.5,0,0.8,0.4,0.8,0.8
		S9.8,5.7,9.4,5.7S8.5,5.3,8.5,4.9S8.9,4,9.4,4z M3.7,2.6c0-0.5,0.4-0.8,0.8-0.8s0.8,0.4,0.8,0.8S5,3.5,4.5,3.5S3.7,3.1,3.7,2.6z
		 M2.6,9.8C2.2,9.8,1.8,9.5,1.8,9s0.4-0.8,0.8-0.8S3.5,8.5,3.5,9S3.1,9.8,2.6,9.8L2.6,9.8z M6,6.8C5.5,6.8,5.2,6.5,5.2,6
		S5.6,5.2,6,5.2c0.5,0,0.8,0.4,0.8,0.8l0,0C6.8,6.5,6.5,6.8,6,6.8z M9.4,9.5c-0.5,0-0.8-0.4-0.8-0.8S9,7.9,9.4,7.9s0.8,0.4,0.8,0.8
		l0,0C10.2,9.1,9.8,9.5,9.4,9.5z"/>
</g>
<g>
	<polygon class="st2" points="8.2,5.6 7.3,5.8 7.1,5.3 8,5 	"/>
	<polygon class="st2" points="4.8,3.9 5.4,3.7 5.8,4.7 5.2,4.9 	"/>
	<g>
		<path class="st2" d="M4.5,1.8c0.5,0,0.8,0.4,0.8,0.8S5,3.5,4.5,3.5S3.7,3.1,3.7,2.6S4,1.8,4.5,1.8 M4.5,1.2
			c-0.8,0-1.4,0.6-1.4,1.4S3.7,4,4.5,4s1.4-0.6,1.4-1.4S5.3,1.2,4.5,1.2L4.5,1.2z"/>
	</g>
	<polygon class="st3" points="6.9,7.1 7.3,6.6 8.5,7.6 8.2,8 	"/>
	<g>
		<path class="st3" d="M9.4,7.8c0.5,0,0.8,0.4,0.8,0.8S9.8,9.5,9.4,9.5S8.5,9.1,8.5,8.6S8.9,7.8,9.4,7.8 M9.4,7.2
			C8.6,7.2,8,7.8,8,8.6S8.6,10,9.4,10s1.4-0.6,1.4-1.4S10.2,7.2,9.4,7.2L9.4,7.2z"/>
	</g>
	<polygon class="st3" points="3.5,7.9 4.8,6.7 5.2,7.1 3.8,8.3 	"/>
	<g>
		<path class="st3" d="M2.6,8.2c0.5,0,0.8,0.4,0.8,0.8S3.1,9.8,2.6,9.8S1.8,9.5,1.8,9S2.2,8.2,2.6,8.2 M2.6,7.6
			C1.8,7.6,1.2,8.2,1.2,9s0.6,1.4,1.4,1.4S4,9.8,4,9S3.4,7.6,2.6,7.6L2.6,7.6z"/>
	</g>
	<g>
		<path class="st2" d="M9.4,4c0.5,0,0.8,0.4,0.8,0.8S9.8,5.7,9.4,5.7S8.5,5.3,8.5,4.9S8.9,4,9.4,4 M9.4,3.5C8.6,3.5,8,4.1,8,4.9
			s0.6,1.4,1.4,1.4s1.4-0.6,1.4-1.4S10.2,3.5,9.4,3.5L9.4,3.5z"/>
	</g>
	<g>
		<path class="st2" d="M6,5.2c0.5,0,0.8,0.4,0.8,0.8S6.5,6.8,6,6.8S5.2,6.5,5.2,6S5.5,5.2,6,5.2 M6,4.6C5.2,4.6,4.6,5.2,4.6,6
			S5.2,7.4,6,7.4S7.4,6.8,7.4,6S6.8,4.6,6,4.6L6,4.6z"/>
	</g>
</g>
</svg>
