<?xml version="1.0" encoding="utf-8"?>
<!-- Generator: Adobe Illustrator 23.0.1, SVG Export Plug-In . SVG Version: 6.00 Build 0)  -->
<svg version="1.1" id="Layer_1" xmlns="http://www.w3.org/2000/svg" xmlns:xlink="http://www.w3.org/1999/xlink" x="0px" y="0px"
	 viewBox="0 0 12 12" style="enable-background:new 0 0 12 12;" xml:space="preserve">
<style type="text/css">
	.st0{display:none;}
	.st1{display:inline;}
	.st2{fill:#A78BFA;}
	.st3{fill:#EA580C;}
	.st4{fill:#5B21B6;}
	.st5{fill:#737373;}
</style>
<g class="st0">
	<path class="st1" d="M10.9,5.3v1.5c0,0.2-0.2,0.4-0.4,0.4H2.6V8h4.1C7,7.9,7.1,8,7.1,8.3v1.1c0,0.2-0.2,0.4-0.4,0.4H2.6v0.4
		c0,0.2-0.2,0.4-0.4,0.4s-0.4-0.2-0.4-0.4V1.9c0-0.2,0.2-0.4,0.4-0.4s0.4,0.2,0.4,0.4v0.4h5.6c0.2,0,0.4,0.2,0.4,0.4v1.1
		c0,0.2-0.2,0.4-0.4,0.4H2.6V5h7.9C10.7,4.9,10.9,5,10.9,5.3z"/>
</g>
<g>
	<path class="st2" d="M2.5,7.1h7.9c0.2,0,0.4-0.2,0.4-0.4V5.3c0-0.2-0.2-0.4-0.4-0.4H2.5C2.3,4.9,2.2,5,2.2,5.3v1.5
		C2.2,7,2.3,7.1,2.5,7.1z"/>
	<path class="st3" d="M2.5,4.1h5.8c0.2,0,0.4-0.2,0.4-0.4V2.6c0-0.2-0.2-0.4-0.4-0.4H2.5c-0.2,0-0.4,0.2-0.4,0.4v1.1
		C2.1,4,2.3,4.1,2.5,4.1z"/>
	<path class="st4" d="M2.4,9.8h4.4c0.2,0,0.4-0.2,0.4-0.4V8.3c0-0.2-0.2-0.4-0.4-0.4H2.4C2.2,7.9,2,8.1,2,8.3v1.1
		C2,9.6,2.2,9.8,2.4,9.8z"/>
	<path class="st5" d="M2.3,10.5L2.3,10.5c-0.2,0-0.4-0.2-0.4-0.4V1.9c0-0.2,0.2-0.4,0.4-0.4l0,0c0.2,0,0.4,0.2,0.4,0.4v8.2
		C2.7,10.3,2.5,10.5,2.3,10.5z"/>
</g>
</svg>
