<?xml version="1.0" encoding="utf-8"?>
<!-- Generator: Adobe Illustrator 23.0.1, SVG Export Plug-In . SVG Version: 6.00 Build 0)  -->
<svg version="1.1" id="Layer_1" xmlns="http://www.w3.org/2000/svg" xmlns:xlink="http://www.w3.org/1999/xlink" x="0px" y="0px"
	 viewBox="0 0 12 12" style="enable-background:new 0 0 12 12;" xml:space="preserve">
<style type="text/css">
	.st0{fill:#FFFFFF;}
	.st1{fill:#7C3AED;}
</style>
<g>
	<path class="st0" d="M7.4,11H4c-0.5,0-1-0.4-1-1V1.8c0-0.5,0.4-1,1-1h3.3c0.5,0,1,0.4,1,1V10C8.4,10.6,7.9,11,7.4,11z"/>
</g>
<path class="st0" d="M10.3,1.7H8.7c0,0,0,0,0,0.1v8.5h1.6c0.5,0,1-0.4,1-1V2.7C11.3,2.2,10.8,1.7,10.3,1.7z"/>
<path class="st0" d="M2.7,1.7h-1c-0.5,0-1,0.4-1,1v6.6c0,0.5,0.4,1,1,1h1V1.7z"/>
<path class="st1" d="M5.5,3.9c0.1-0.1,0.2-0.1,0.3,0L6,4.6C6.2,5,6.4,5.2,6.7,5.3l0.8,0.3c0.1,0.1,0.1,0.2,0,0.3L6.7,6.1
	C6.4,6.2,6.2,6.5,6,6.8L5.8,7.6c0,0.1-0.1,0.1-0.2,0.1c-0.1,0-0.1-0.1-0.1-0.1L5.2,6.8C5.1,6.5,4.9,6.2,4.5,6.1L3.8,5.8
	c-0.1,0-0.1-0.1-0.1-0.2c0.1-0.1,0.1-0.1,0.1-0.1l0.8-0.3C4.9,5.2,5.1,5,5.3,4.6L5.5,3.9z"/>
</svg>
