<?xml version="1.0" encoding="utf-8"?>
<!-- Generator: Adobe Illustrator 23.0.1, SVG Export Plug-In . SVG Version: 6.00 Build 0)  -->
<svg version="1.1" xmlns="http://www.w3.org/2000/svg" xmlns:xlink="http://www.w3.org/1999/xlink" x="0px" y="0px"
	 viewBox="0 0 12 12" style="enable-background:new 0 0 12 12;" xml:space="preserve">
<style type="text/css">
	.st0{display:none;}
	.st1{display:inline;}
	.st2{fill:#EA580C;}
	.st3{fill:#A78BFA;}
	.st4{fill:#7C3AED;}
</style>
<g id="Layer_1" class="st0">
	<path class="st1" d="M5.7,4.7c0.1-0.2,0.4-0.2,0.5,0l0.5,1.5C7,6.8,7.5,7.3,8.1,7.5L9.6,8c0.2,0.1,0.2,0.4,0,0.5L8.1,9
		C7.5,9.2,7,9.7,6.7,10.4l-0.5,1.5C6.2,12,6.1,12,5.9,12c-0.1,0-0.1-0.1-0.2-0.2l-0.5-1.5C5,9.7,4.5,9.2,3.9,9L2.4,8.5
		c-0.1,0-0.2-0.2-0.2-0.3C2.3,8.1,2.4,8,2.4,8l1.5-0.5C4.5,7.3,5,6.8,5.3,6.1L5.7,4.7z M2.8,0.9c0-0.1,0.1-0.1,0.2-0.1
		c0,0,0.1,0.1,0.1,0.1l0.3,0.9c0.1,0.4,0.4,0.7,0.8,0.8l0.9,0.3c0.1,0,0.1,0.1,0.1,0.2c0,0-0.1,0.1-0.1,0.1L4.3,3.4
		C3.9,3.6,3.6,3.9,3.4,4.3L3.2,5.1c0,0.1-0.1,0.1-0.2,0.1c0,0-0.1-0.1-0.1-0.1L2.6,4.3C2.4,3.9,2.1,3.6,1.7,3.4L0.9,3.2
		C0.8,3.1,0.7,3,0.8,2.9c0,0,0.1-0.1,0.1-0.1l0.9-0.3c0.4-0.1,0.7-0.4,0.8-0.8L2.8,0.9z M8.1,0.1C8.2,0,8.2,0,8.3,0
		c0,0,0.1,0,0.1,0.1l0.2,0.6c0.1,0.3,0.3,0.5,0.5,0.5l0.6,0.2c0.1,0,0.1,0.1,0.1,0.1c0,0,0,0.1-0.1,0.1L9.1,1.8
		C8.8,1.9,8.6,2.1,8.5,2.3L8.4,2.9C8.3,3,8.3,3,8.2,3c0,0-0.1,0-0.1-0.1L8,2.3C7.9,2.1,7.7,1.9,7.4,1.8L6.8,1.6
		c-0.1,0-0.1-0.1-0.1-0.1c0,0,0-0.1,0.1-0.1l0.6-0.2C7.7,1.1,7.9,0.9,8,0.7L8.1,0.1z"/>
</g>
<g id="Layer_2">
	<path class="st2" d="M5.7,4.7c0.1-0.2,0.4-0.2,0.5,0l0.5,1.5C7,6.8,7.5,7.3,8.1,7.5L9.6,8c0.2,0.1,0.2,0.4,0,0.5L8.1,9
		C7.5,9.2,7,9.7,6.7,10.4l-0.5,1.5C6.2,12,6.1,12,5.9,12c-0.1,0-0.1-0.1-0.2-0.2l-0.5-1.5C5,9.7,4.5,9.2,3.9,9L2.4,8.5
		c-0.1,0-0.2-0.2-0.2-0.3C2.3,8.1,2.4,8,2.4,8l1.5-0.5C4.5,7.3,5,6.8,5.3,6.1L5.7,4.7z"/>
	<path class="st3" d="M2.8,0.9c0-0.1,0.1-0.1,0.2-0.1c0,0,0.1,0.1,0.1,0.1l0.3,0.9c0.1,0.4,0.4,0.7,0.8,0.8l0.9,0.3
		c0.1,0,0.1,0.1,0.1,0.2c0,0-0.1,0.1-0.1,0.1L4.3,3.4C3.9,3.6,3.6,3.9,3.4,4.3L3.2,5.1c0,0.1-0.1,0.1-0.2,0.1c0,0-0.1-0.1-0.1-0.1
		L2.6,4.3C2.4,3.9,2.1,3.6,1.7,3.4L0.9,3.2C0.8,3.1,0.7,3,0.8,2.9c0,0,0.1-0.1,0.1-0.1l0.9-0.3c0.4-0.1,0.7-0.4,0.8-0.8L2.8,0.9z"/>
	<path class="st4" d="M8.1,0.1C8.2,0,8.2,0,8.3,0c0,0,0.1,0,0.1,0.1l0.2,0.6c0.1,0.3,0.3,0.5,0.5,0.5l0.6,0.2c0.1,0,0.1,0.1,0.1,0.1
		c0,0,0,0.1-0.1,0.1L9.1,1.8C8.8,1.9,8.6,2.1,8.5,2.3L8.4,2.9C8.3,3,8.3,3,8.2,3c0,0-0.1,0-0.1-0.1L8,2.3C7.9,2.1,7.7,1.9,7.4,1.8
		L6.8,1.6c-0.1,0-0.1-0.1-0.1-0.1c0,0,0-0.1,0.1-0.1l0.6-0.2C7.7,1.1,7.9,0.9,8,0.7L8.1,0.1z"/>
</g>
</svg>
